<svg width="342" height="22" viewBox="0 0 342 22" fill="none" xmlns="http://www.w3.org/2000/svg">
    <path
        d="M6.46448 0.308624V7.77522H7.3157L17.3517 0.308624H25.7984L13.2683 9.6567V10.642L26.0186 20.9753H17.2922L7.45261 13.0161H6.46448V20.9753H0V0.308624H6.46448Z"
        fill="white" />
    <path
        d="M35.1558 0.308624V13.574H36.0844L48.3884 0.308624H55.966V20.9753H49.4479V7.70993H48.5193L36.2392 20.9753H28.6616V0.308624H35.1558Z"
        fill="white" />
    <path
        d="M83.2525 0.308624V5.55542H66.5853V7.92953H76.1749C82.6096 7.92953 84.9609 10.1197 84.9609 14.2506V14.8441C84.9609 18.9988 82.5144 20.9812 76.1749 20.9812H60.103V0.308624H83.2525ZM66.5853 16.1024H76.1749C77.5321 16.1024 78.2762 15.6691 78.2762 14.5889V14.2803C78.2762 13.295 77.5678 12.7727 76.1749 12.7727H66.6091L66.5853 16.1024Z"
        fill="white" />
    <path
        d="M111.777 0.308624V5.36549H94.8183V8.08385H110.009V12.8024H94.8183V15.8888H111.956V20.9753H88.33V0.308624H111.777Z"
        fill="white" />
    <path
        d="M132.611 0.308624C138.677 0.308624 140.945 3.11602 140.945 7.0333V7.89986C140.945 11.9359 138.653 14.6839 132.611 14.6839H122.129V20.9753H115.652V0.308624H132.611ZM122.129 9.4371H131.808C133.385 9.4371 134.314 8.98008 134.314 7.70993V7.2173C134.314 6.03024 133.385 5.55542 131.808 5.55542H122.129V9.4371Z"
        fill="white" />
    <path d="M169.392 0.308624V20.9753H162.898V5.54355H150.463V20.9753H143.963V0.308624H169.392Z" fill="white" />
    <path
        d="M190.541 0.308624C196.607 0.308624 198.875 3.11602 198.875 7.0333V7.89986C198.875 11.9359 196.589 14.6839 190.541 14.6839H180.053V20.9753H173.559V0.308624H190.541ZM180.053 9.4371H189.738C191.315 9.4371 192.244 8.98008 192.244 7.70993V7.2173C192.244 6.03024 191.315 5.55542 189.738 5.55542H180.053V9.4371Z"
        fill="white" />
    <path
        d="M216.376 0C223.894 0 229.924 3.63833 229.924 10.179V11.099C229.924 17.6278 223.894 21.278 216.376 21.278H214.828C207.125 21.278 200.97 17.6397 200.97 11.099V10.179C200.97 3.6502 207.125 0 214.828 0H216.376ZM207.619 10.179V11.099C207.619 14.0666 210.34 15.7285 214.828 15.7285H216.066C220.548 15.7285 223.275 14.0904 223.275 11.099V10.179C223.275 7.15796 220.548 5.55543 216.066 5.55543H214.828C210.34 5.55543 207.619 7.15796 207.619 10.179Z"
        fill="white" />
    <path d="M257.674 0.308624V5.55542H247.621V20.9872H241.126V5.55542H231.067V0.308624H257.674Z" fill="white" />
    <path
        d="M283.61 0.308624V5.36549H266.627V8.08385H281.812V12.8024H266.627V15.8888H283.764V20.9753H260.157V0.308624H283.61Z"
        fill="white" />
    <path
        d="M293.926 0.308624V7.77522H294.765L304.819 0.308624H313.277L300.717 9.6567V10.642L313.498 20.9753H304.753L294.92 13.0161H293.926V20.9753H287.461V0.308624H293.926Z"
        fill="white" />
    <path d="M341.963 0.308624V5.55542H331.909V20.9872H325.409V5.55542H315.355V0.308624H341.963Z" fill="white" />
</svg>